<svg xmlns="http://www.w3.org/2000/svg" viewBox="0 0 96 96" role="img" aria-label="مذكرات نبض">
<defs><linearGradient id="g" x1="0" y1="0" x2="1" y2="1"><stop stop-color="#F8C9D4"/><stop offset="1" stop-color="#B96B85"/></linearGradient><filter id="s" x="-30%" y="-30%" width="160%" height="160%"><feDropShadow dx="0" dy="4" stdDeviation="4" flood-color="#7a4055" flood-opacity=".18"/></filter></defs>
<rect x="7" y="7" width="82" height="82" rx="24" fill="#FFF9F6" stroke="#F3D9D3"/>
<g filter="url(#s)" stroke-linecap="round" stroke-linejoin="round"><rect x="26" y="20" width="47" height="58" rx="8" fill="url(#g)"/><path d="M35 20v58M45 32h18M45 44h18M45 56h14" stroke="#fff" stroke-width="4"/><path d="M22 28h9M22 40h9M22 52h9M22 64h9" stroke="#8E5268" stroke-width="4"/><path d="M56 68c8-5 13-10 13-16-7-2-13 2-13 8-1-6-7-10-14-8 0 6 5 11 14 16Z" fill="#FFF0F3"/></g></svg>