<svg xmlns="http://www.w3.org/2000/svg" viewBox="0 0 96 96" role="img" aria-label="العشاء">
<defs><linearGradient id="g" x1="0" y1="0" x2="1" y2="1"><stop stop-color="#F8C9D4"/><stop offset="1" stop-color="#B96B85"/></linearGradient><filter id="s" x="-30%" y="-30%" width="160%" height="160%"><feDropShadow dx="0" dy="4" stdDeviation="4" flood-color="#7a4055" flood-opacity=".18"/></filter></defs>
<rect x="7" y="7" width="82" height="82" rx="24" fill="#FFF9F6" stroke="#F3D9D3"/>
<g filter="url(#s)" stroke-linecap="round" stroke-linejoin="round"><path d="M27 49h42c0 16-9 27-21 27S27 65 27 49Z" fill="#D7A778" stroke="#98613B" stroke-width="3"/><path d="M24 48h48" stroke="#98613B" stroke-width="4"/><path d="M42 28c-4 7 5 9 1 16M53 26c-4 7 5 9 1 16" fill="none" stroke="#B96B85" stroke-width="4"/><path d="M64 18a14 14 0 1 0 12 21 17 17 0 0 1-12-21Z" fill="#F2D582"/></g></svg>