<svg xmlns="http://www.w3.org/2000/svg" viewBox="0 0 96 96" role="img" aria-label="الغذاء">
<defs><linearGradient id="g" x1="0" y1="0" x2="1" y2="1"><stop stop-color="#F8C9D4"/><stop offset="1" stop-color="#B96B85"/></linearGradient><filter id="s" x="-30%" y="-30%" width="160%" height="160%"><feDropShadow dx="0" dy="4" stdDeviation="4" flood-color="#7a4055" flood-opacity=".18"/></filter></defs>
<rect x="7" y="7" width="82" height="82" rx="24" fill="#FFF9F6" stroke="#F3D9D3"/>
<g filter="url(#s)" stroke-linecap="round" stroke-linejoin="round"><path d="M22 55h52c0 14-11 23-26 23S22 69 22 55Z" fill="#F0C18B" stroke="#9B6946" stroke-width="3"/><path d="M31 53c2-13 11-22 17-22 7 0 15 9 17 22" fill="#FFF1D8"/><path d="M42 31c-1-8 4-13 10-15M51 29c6-6 13-5 18-1-3 7-10 9-18 6" fill="#8EAD6E" stroke="#6D8B54" stroke-width="3"/></g></svg>