<svg width="96" height="96" viewBox="0 0 96 96" fill="none" xmlns="http://www.w3.org/2000/svg">
  <path d="M52 13c-10 0-18 7-18 17 0 6 3 11 8 14-8 6-13 16-13 27" stroke="#C9932E" stroke-width="4.2" stroke-linecap="round"/>
  <path d="M53 13c8 1 14 5 18 12M66 26c-2 8-8 14-16 16" stroke="#C9932E" stroke-width="4.2" stroke-linecap="round"/>
  <path d="M48 43c15 1 24 13 24 28 0 7-2 12-6 16M30 70c0 10 8 17 19 17 6 0 12-2 17-7" stroke="#C9932E" stroke-width="4.2" stroke-linecap="round"/>
  <path d="M49 52c-6 4-9 9-9 15 0 7 5 12 12 12 9 0 16-7 16-16" stroke="#C9932E" stroke-width="4.2" stroke-linecap="round"/>
  <path d="M51 60c3-5 10-5 13 0 3-5 10-5 13 0 0 7-8 13-13 17-5-4-13-10-13-17Z" fill="#FF6F91" stroke="#fff" stroke-width="2"/>
</svg>
