<svg xmlns="http://www.w3.org/2000/svg" viewBox="0 0 96 96" role="img" aria-label="شجرة الحمل">
<defs><linearGradient id="g" x1="0" y1="0" x2="1" y2="1"><stop stop-color="#F8C9D4"/><stop offset="1" stop-color="#B96B85"/></linearGradient><filter id="s" x="-30%" y="-30%" width="160%" height="160%"><feDropShadow dx="0" dy="4" stdDeviation="4" flood-color="#7a4055" flood-opacity=".18"/></filter></defs>
<rect x="7" y="7" width="82" height="82" rx="24" fill="#FFF9F6" stroke="#F3D9D3"/>
<g filter="url(#s)" stroke-linecap="round" stroke-linejoin="round"><path d="M48 73V43" stroke="#7A5C43" stroke-width="6"/><path d="M48 50c-12-2-18-10-18-20 12 0 20 7 20 18M50 42c5-12 14-16 24-13-2 12-11 18-23 17M47 58c-12 0-19-7-21-17 11-2 20 4 23 14M51 60c8-9 18-10 27-5-5 11-15 14-26 9" fill="#9FB786" stroke="#6E8D5B" stroke-width="2"/><path d="M30 76h36" stroke="#C79272" stroke-width="5"/></g></svg>